<?xml version="1.0" encoding="UTF-8"?>
<!-- Created with Inkscape (http://www.inkscape.org/) -->
<svg width="512" height="512" version="1.1" viewBox="0 0 135.47 135.47" xml:space="preserve" xmlns="http://www.w3.org/2000/svg"><path d="m36.114 4.2333c-1.4917 0.031162-2.9984 3.3643-2.9984 3.3643-7.5681 15.823 2.6764 29.258 20.993 27.189l2.5964 4.6436a1.824 1.824 0 0 0 2.4621 0.77111 1.824 1.824 0 0 0 0.77111-2.4613 1.824 1.824 0 0 0-0.0081-0.01448l-2.491-4.7143c4.6565-9.2092-0.41716-17.919-11.152-20.815-9.1421-2.5699-7.6623-7.6278-9.9408-7.9467-0.07347-0.010223-0.15064-0.01593-0.23238-0.016081zm-0.15599 4.1273c3.8284 6.5116 9.6158 5.6699 14.293 8.7596 4.4405 2.7312 6.8866 7.4524 5.1775 12.2-4.2423-5.2714-12.05-6.5691-15.177-12.762-0.59151-1.9182-3.5292-1.7359-3.7076 0.316 0.95254 6.3793 9.465 9.3294 14.013 12.784 0.55333 0.38459 1.4246 1.3167 1.7191 1.9427-18.535 0.8104-21.475-13.296-16.317-23.24zm-7.1893 37.124c-0.34171-0.01245-0.67712 0.07547-0.97052 0.23238-1.4916 0.7979-0.61673 2.6832-0.61673 2.6832 3.2443 6.0409 9.8066 16.75 19.361 26.269-0.21618 2.2679-0.13817 4.6064 0.27097 6.9899 0.94584 5.5495 3.4361 10.566 6.2485 14.745h-0.0033c0.02101 0.03128 0.04402 0.0621 0.06674 0.09166 15.919 20.791 48.106 31.913 75.928 34.727 1.0912 0.11033 1.8986-0.63549 1.9997-1.6347 0.10114-0.99957-0.54039-1.8861-1.6323-1.9965-27.229-2.754-58.34-13.693-73.363-33.271-3.4158-5.0882-5.0153-9.5724-5.6462-13.275-0.16755-0.9761-0.06015-1.9024-0.10372-2.8569 7.9966 7.0512 17.705 12.93 29.215 14.706 3.2434 0.50893 9.7996 1.2281 16.726 0.16725 6.9269-1.0608 14.254-3.9172 18.91-10.597 1.5954-2.2786 3.3827-5.6381 3.8226-9.7012 0.43992-4.0631-0.49059-8.823-4.2729-13.797-9.6939-12.729-26.414-13.244-31.734-13.07-10.838 0.32147-20.677 4.4789-27.418 10.949-3.988 3.828-6.6974 8.532-8.0633 13.664-8.4968-8.9048-14.35-18.67-17.225-24.045-0.26931-0.50291-0.70163-0.82349-1.1579-0.93273-0.11405-0.02723-0.22862-0.04243-0.34254-0.04663zm54.319 4.0582h0.0033c13.642-0.44559 23.631 4.9609 28.713 11.633 3.0044 3.9511 3.8469 7.6233 3.5798 10.877s-1.6641 6.1013-3.2179 8.3206c-4.0279 5.7796-10.564 8.2423-16.866 9.1416-6.3019 0.89927-12.336 0.22409-15.214-0.22756-11.755-1.8135-21.592-8.3372-29.543-15.904 0.92041-5.3738 3.6322-10.259 7.8108-14.168 6.0983-5.704 15.01-9.3847 24.734-9.6731zm-75.339 22.774v8.04e-4c-0.07425 0.0038-0.15062 0.01416-0.23077 0.02975-1.4562 0.32517-2.2755 3.8893-2.2755 3.8893-4.2938 17.006 8.403 28.154 25.95 22.508l3.4624 4.0389a1.824 1.824 0 0 0 2.5658 0.27018 1.824 1.824 0 0 0 0.27017-2.565 1.824 1.824 0 0 0-0.0112-0.013l-3.3731-4.1297c2.7459-9.9475-3.9483-17.483-15.044-18.202-9.4696-0.7136-9.0176-5.9645-11.314-5.8272zm0.43178 4.1072c5.0391 5.6272 10.546 3.6584 15.741 5.7636 4.8925 1.8003 8.2231 5.9459 7.4852 10.937-5.1999-4.3297-13.11-4.0594-17.399-9.5123-0.95873-1.7635-3.8029-1.0054-3.5725 1.0413 2.1937 6.0655 11.122 7.2763 16.263 9.7647 0.61839 0.26773 1.6557 1.0093 2.0681 1.5647-18.01 4.4552-23.678-8.7919-20.585-19.559z"/></svg>
