<?xml version="1.0" encoding="UTF-8"?>
<svg width="512" height="512" version="1.1" viewBox="0 0 24 24" xml:space="preserve" xmlns="http://www.w3.org/2000/svg">
    <path d="m20.4 0h-16.8a3.6 3.6 0 0 0-3.6 3.6v16.8a3.6 3.6 0 0 0 3.6 3.6h16.8a3.6 3.6 0 0 0 3.6-3.6v-16.8a3.6 3.6 0 0 0-3.6-3.6zm1.2 20.4a1.2 1.2 0 0 1-1.2 1.2h-16.8a1.2 1.2 0 0 1-1.2-1.2v-3.6h19.2zm0-6h-19.2v-4.8h4.8a1.2 1.2 0 0 0 0.852-0.348l1.548-1.5 3.36 3.84a1.2 1.2 0 0 0 0.864 0.408h0.012a1.2 1.2 0 0 0 0.852-0.348l2.004-2.052h4.908zm0-7.2h-5.4a1.2 1.2 0 0 0-0.852 0.348l-1.488 1.5-3.36-3.84a1.2 1.2 0 0 0-1.752 0l-2.04 1.992h-4.308v-3.6a1.2 1.2 0 0 1 1.2-1.2h16.8a1.2 1.2 0 0 1 1.2 1.2z"/>
    <circle cx="8.4" cy="19.2" r="1.2"/>
    <circle cx="4.8" cy="19.2" r="1.2"/>
</svg>
