<?xml version="1.0" encoding="UTF-8"?>
<svg width="512" height="512" version="1.1" viewBox="0 0 512 512" xmlns="http://www.w3.org/2000/svg">
 <path d="m64 80c-26.51 0-48 21.49-48 48v224c0 26.51 21.49 48 48 48h120v32h-48c-8.836 0-16 7.164-16 16s7.164 16 16 16h240c8.836 0 16-7.164 16-16s-7.164-16-16-16h-48v-32h120c26.51 0 48-21.49 48-48v-224c0-26.51-21.49-48-48-48zm0 32h384c8.836 0 16 7.164 16 16v224c0 8.836-7.164 16-16 16h-384c-8.836 0-16-7.164-16-16v-224c0-8.836 7.164-16 16-16zm104 32c-8.836 0-16 7.164-16 16v32h-48c-8.836 0-16 7.164-16 16s7.164 16 16 16h60c8.836 0 16-7.164 16-16v-22.49l40 96 36-86.4 28 50.4c2.812 5.07 8.135 8.227 13.93 8.27h0.0664c5.77 0 11.07-3.117 13.92-8.137l25.05-44.18 14.86 22.31c2.969 4.453 7.969 7.137 13.32 7.137h64c8.836 0 16-7.164 16-16s-7.164-16-16-16h-55.43l-22.18-33.27c-2.969-4.453-7.969-7.137-13.32-7.137h-0.0234c-5.762 0.00781-11.06 3.137-13.91 8.156l-24.66 43.46-30.84-55.49c-2.93-5.273-8.711-8.367-14.71-7.875-6 0.4922-11.21 4.488-13.27 10.16l-33.84 73.17-29.69-71.27c-2.48-5.953-8.293-9.832-14.74-9.832z"/>
</svg>
