<?xml version="1.0" encoding="UTF-8"?>
<svg width="512" height="512" version="1.1" viewBox="0 0 24 24" xmlns="http://www.w3.org/2000/svg">
 <path d="M19 2H5a3 3 0 0 0-3 3v14a3 3 0 0 0 3 3h14a3 3 0 0 0 3-3V5a3 3 0 0 0-3-3zm1 17a1 1 0 0 1-1 1H5a1 1 0 0 1-1-1v-3h16v3zm0-5H4v-4h4a1 1 0 0 0 .71-.29L10 8.46l2.8 3.2a1 1 0 0 0 .72.34h.01a1 1 0 0 0 .71-.29L15.91 10H20v4zm0-6h-4.5a1 1 0 0 0-.71.29L13.55 9.54l-2.8-3.2a1 1 0 0 0-1.46 0L7.59 8H4V5a1 1 0 0 1 1-1h14a1 1 0 0 1 1 1v3z" stroke-width=".99999"/>
 <circle cx="9" cy="18" r="1" stroke-width=".99999"/>
 <circle cx="6" cy="18" r="1" stroke-width=".99999"/>
</svg>
