<?xml version="1.0" encoding="UTF-8"?>
<svg width="32" height="32" version="1.1" viewBox="0 0 32 32" xmlns="http://www.w3.org/2000/svg">
 <path d="m12.541 0c-1.9261 0-3.4889 1.4318-3.6937 3.2993h-1.4314c-2.0676 0-3.7157 1.648-3.7157 3.7157v21.269c0 2.0676 1.648 3.7157 3.7157 3.7157h17.169c2.0676 0 3.7157-1.648 3.7157-3.7157v-21.269c0-2.0676-1.648-3.7157-3.7157-3.7157h-1.4314c-0.20403-1.8682-1.767-3.2993-3.6937-3.2993zm0 3.2673h6.9189c0.29897 0 0.44845 0.14948 0.44845 0.44845v2.3704c0 0.29897-0.14948 0.44845-0.44845 0.44845h-6.9189c-0.29897 0-0.44845-0.14948-0.44845-0.44845v-2.3704c0-0.29897 0.14948-0.44845 0.44845-0.44845zm-5.1251 3.2993h1.4394c0.23235 1.8367 1.781 3.2352 3.6857 3.2352h6.9189c1.9047 0 3.4533-1.3985 3.6857-3.2352h1.4394c0.29897 0 0.44845 0.14948 0.44845 0.44845v21.269c0 0.29897-0.14948 0.44845-0.44845 0.44845h-17.169c-0.29897 0-0.44845-0.14948-0.44845-0.44845v-21.269c0-0.29897 0.14948-0.44845 0.44845-0.44845zm13.019 6.977c-0.40436 0.01504-0.8191 0.19101-1.1672 0.58258l-4.8048 5.5736-1.7938-1.9219c-1.3329-1.7137-3.8973 0.65126-2.3704 2.1782l3.011 3.3313c0.47118 0.62824 1.7759 0.78265 2.4344-0.06406l6.022-6.983c1.0067-1.3423-0.11824-2.7418-1.3313-2.6967z"/>
</svg>
